<?xml version="1.0" encoding="UTF-8"?>
<svg version="1.1" xmlns="http://www.w3.org/2000/svg" width="512" height="512">
<path d="M0 0 C0.90054108 -0.00701431 1.80108215 -0.01402863 2.72891235 -0.02125549 C5.61750351 -0.03865402 8.50588962 -0.0451074 11.39453125 -0.046875 C12.38190277 -0.04754974 13.36927429 -0.04822449 14.38656616 -0.04891968 C28.87791389 -0.03317157 42.94723376 0.41971425 57.20703125 3.203125 C58.5525708 3.44458252 58.5525708 3.44458252 59.92529297 3.69091797 C109.46556968 12.65518497 153.92796357 36.65010988 190.20703125 71.203125 C191.10542725 72.05849854 191.10542725 72.05849854 192.02197266 72.93115234 C200.36936508 80.93818658 208.01620673 89.16119067 214.90527344 98.45703125 C216.20622753 100.20204695 217.53542624 101.92208563 218.87109375 103.640625 C249.0421975 142.96010463 268.14898101 194.21603264 268.41015625 243.99609375 C268.41717056 244.89663483 268.42418488 245.7971759 268.43141174 246.7250061 C268.44881027 249.61359726 268.45526365 252.50198337 268.45703125 255.390625 C268.45804337 256.87168228 268.45804337 256.87168228 268.45907593 258.38265991 C268.44332782 272.87400764 267.990442 286.94332751 265.20703125 301.203125 C265.04605957 302.10015137 264.88508789 302.99717773 264.71923828 303.92138672 C255.75497128 353.46166343 231.76004637 397.92405732 197.20703125 434.203125 C196.35165771 435.101521 196.35165771 435.101521 195.47900391 436.01806641 C187.47196967 444.36545883 179.24896558 452.01230048 169.953125 458.90136719 C168.2081093 460.20232128 166.48807062 461.53151999 164.76953125 462.8671875 C125.45005162 493.03829125 74.19412361 512.14507476 24.4140625 512.40625 C23.51352142 512.41326431 22.61298035 512.42027863 21.68515015 512.42750549 C18.79655899 512.44490402 15.90817288 512.4513574 13.01953125 512.453125 C12.03215973 512.45379974 11.04478821 512.45447449 10.02749634 512.45516968 C-4.46385139 512.43942157 -18.53317126 511.98653575 -32.79296875 509.203125 C-33.68999512 509.04215332 -34.58702148 508.88118164 -35.51123047 508.71533203 C-85.05150718 499.75106503 -129.51390107 475.75614012 -165.79296875 441.203125 C-166.39189941 440.63287598 -166.99083008 440.06262695 -167.60791016 439.47509766 C-175.95530258 431.46806342 -183.60214423 423.24505933 -190.49121094 413.94921875 C-191.79216503 412.20420305 -193.12136374 410.48416437 -194.45703125 408.765625 C-224.628135 369.44614537 -243.73491851 318.19021736 -243.99609375 268.41015625 C-244.00310806 267.50961517 -244.01012238 266.6090741 -244.01734924 265.6812439 C-244.03474777 262.79265274 -244.04120115 259.90426663 -244.04296875 257.015625 C-244.04364349 256.02825348 -244.04431824 255.04088196 -244.04501343 254.02359009 C-244.02926532 239.53224236 -243.5763795 225.46292249 -240.79296875 211.203125 C-240.55151123 209.85758545 -240.55151123 209.85758545 -240.30517578 208.48486328 C-231.34090878 158.94458657 -207.34598387 114.48219268 -172.79296875 78.203125 C-172.22271973 77.60419434 -171.6524707 77.00526367 -171.06494141 76.38818359 C-163.05790717 68.04079117 -154.83490308 60.39394952 -145.5390625 53.50488281 C-143.7940468 52.20392872 -142.07400812 50.87473001 -140.35546875 49.5390625 C-101.03598912 19.36795875 -49.78006111 0.26117524 0 0 Z " fill="#0E0D0C" transform="translate(243.79296875,-0.203125)"/>
<path d="M0 0 C8.25 0 16.5 0 25 0 C26.90556784 5.08151423 28.47979712 9.45675629 29.68359375 14.6328125 C29.97169922 15.85226563 30.25980469 17.07171875 30.55664062 18.328125 C30.84732422 19.58109375 31.13800781 20.8340625 31.4375 22.125 C33.11375828 29.31219279 34.80743881 36.46969901 36.87890625 43.5546875 C39.99334861 54.25274067 42.55220032 65.0975741 45.21826172 75.9140625 C47.69546704 85.95139409 50.20040142 95.95616801 53.10205078 105.88037109 C54.86976079 112.02169749 56.4055508 118.22544995 57.97460938 124.41992188 C58.34875977 125.87688477 58.34875977 125.87688477 58.73046875 127.36328125 C59.06147583 128.66712769 59.06147583 128.66712769 59.39916992 129.99731445 C59.82131943 131.97934942 59.82131943 131.97934942 61 133 C61.19110352 132.28569824 61.38220703 131.57139648 61.57910156 130.83544922 C62.46819872 127.51497625 63.3590941 124.19498811 64.25 120.875 C64.55035156 119.75222656 64.85070312 118.62945312 65.16015625 117.47265625 C65.46308594 116.34472656 65.76601563 115.21679688 66.078125 114.0546875 C66.35043945 113.03874512 66.62275391 112.02280273 66.90332031 110.97607422 C68.34717118 105.68831085 69.87416655 100.42385199 71.38357162 95.15452957 C72.53399702 91.13358305 73.67911779 87.11112418 74.82495117 83.08886719 C77.36386484 74.17844138 79.9046696 65.26855623 82.44665051 56.35900497 C83.97743504 50.99337547 85.50746238 45.62753225 87.03588867 40.26123047 C88.52358369 35.03805351 90.01318929 29.81542498 91.50414467 24.5931778 C92.0706096 22.60777683 92.63637647 20.62217656 93.201437 18.63637543 C93.98687397 15.87652427 94.77475205 13.11738138 95.56323242 10.35839844 C95.79647217 9.53666641 96.02971191 8.71493439 96.27001953 7.86830139 C97.88594245 2.2281151 97.88594245 2.2281151 99 0 C107.58 0 116.16 0 125 0 C128.36886035 7.86067416 128.36886035 7.86067416 129.359375 11.90625 C129.58423584 12.80263184 129.80909668 13.69901367 130.04077148 14.62255859 C130.27481689 15.57211426 130.5088623 16.52166992 130.75 17.5 C132.78367898 25.52561987 134.98385623 33.4676719 137.4375 41.375 C140.89701375 52.53836048 144.05017687 63.77502117 147.17236328 75.03662109 C148.42204973 79.51116215 149.71242899 83.97374865 151 88.4375 C153.32236958 96.52220492 155.55518838 104.62976856 157.75 112.75 C158.04390625 113.83337646 158.3378125 114.91675293 158.640625 116.03295898 C160.24356125 121.99619721 161.71132103 127.96089657 163 134 C163.66 134 164.32 134 165 134 C165.10957031 132.73414063 165.21914063 131.46828125 165.33203125 130.1640625 C165.93764737 124.74628201 167.25430257 119.62521943 168.6875 114.375 C169.23324341 112.33077468 169.77881142 110.28650252 170.32421875 108.2421875 C170.60313965 107.20545898 170.88206055 106.16873047 171.16943359 105.10058594 C172.47139204 100.24024723 173.73465928 95.36997381 175 90.5 C175.50108983 88.57806965 176.00239229 86.65619472 176.50390625 84.734375 C176.75156738 83.78498047 176.99922852 82.83558594 177.25439453 81.85742188 C177.99085101 79.03506214 178.72778232 76.2128268 179.46484375 73.390625 C182.15282618 63.09622422 184.83137343 52.7994363 187.5 42.5 C188.08722218 40.23567257 188.67446167 37.97134963 189.26171875 35.70703125 C190.41295683 31.2676459 191.56093352 26.82743366 192.70703125 22.38671875 C193.24211076 20.32029263 193.77726355 18.25388548 194.3125 16.1875 C194.67601562 14.77404297 194.67601562 14.77404297 195.046875 13.33203125 C195.27503906 12.45289063 195.50320313 11.57375 195.73828125 10.66796875 C195.93462158 9.90766357 196.13096191 9.1473584 196.33325195 8.36401367 C197.127594 5.54760429 198.07462758 2.77611725 199 0 C207.25 0 215.5 0 224 0 C223.06587146 5.60477123 221.81107443 10.95132626 220.375 16.4375 C220.11283691 17.44304932 219.85067383 18.44859863 219.58056641 19.48461914 C217.41442387 27.67482827 214.98076677 35.76687046 212.46850586 43.85644531 C210.79775651 49.26932039 209.25515006 54.67822047 207.9375 60.1875 C206.53697546 66.00323751 204.93197306 71.71587614 203.1875 77.4375 C198.21096448 93.77654495 193.72284757 110.25036276 189.3125 126.75 C187.30859003 134.24655476 185.25967466 141.70262788 182.90625 149.09765625 C181.44756431 153.76922292 180.14798687 158.48589565 178.83203125 163.19921875 C178 166 178 166 177 168 C168.42 168 159.84 168 151 168 C146.50356633 156.75891583 146.50356633 156.75891583 145.2890625 152.2578125 C145.01698975 151.26475098 144.74491699 150.27168945 144.46459961 149.24853516 C144.0489978 147.70238525 144.0489978 147.70238525 143.625 146.125 C143.01574384 143.9058594 142.40504821 141.68711354 141.79296875 139.46875 C141.49181152 138.375625 141.1906543 137.2825 140.88037109 136.15625 C138.07033419 126.08188588 134.99734551 116.08236338 131.80322266 106.1237793 C128.8864028 97.02241689 126.23653315 87.86606968 123.68920898 78.65454102 C121.28773316 69.97740367 118.78142752 61.33390081 116.22094727 52.70239258 C115.94436279 51.76419678 115.66777832 50.82600098 115.3828125 49.859375 C115.13934082 49.03920898 114.89586914 48.21904297 114.64501953 47.37402344 C113.98129949 44.93117194 113.46832681 42.48705313 113 40 C112.34 40 111.68 40 111 40 C110.89945312 40.7528125 110.79890625 41.505625 110.6953125 42.28125 C109.72988249 47.44467341 108.30160974 52.44713481 106.875 57.5 C106.5651416 58.60279297 106.2552832 59.70558594 105.93603516 60.84179688 C103.35342156 69.94156612 100.5210212 78.9479872 97.6171875 87.94921875 C94.64514015 97.17921178 91.96559653 106.49029775 89.3828125 115.8359375 C86.2607379 127.12404581 83.04069805 138.34875454 79.39697266 149.48120117 C77.6304862 154.8981103 76.0669931 160.33537335 74.63964844 165.85205078 C74 168 74 168 73 169 C71.07332493 169.08748207 69.14348139 169.10697334 67.21484375 169.09765625 C66.04501953 169.09443359 64.87519531 169.09121094 63.66992188 169.08789062 C62.43822266 169.07951172 61.20652344 169.07113281 59.9375 169.0625 C58.08415039 169.05573242 58.08415039 169.05573242 56.19335938 169.04882812 C53.12885883 169.03699608 50.06445279 169.02051173 47 169 C43.82100051 157.92590287 40.66622093 146.84545279 37.5625 135.75 C37.12550781 134.18838135 37.12550781 134.18838135 36.6796875 132.59521484 C35.18530622 127.25099933 33.69552387 121.90553844 32.2109375 116.55859375 C29.58407503 107.11415719 26.93216509 97.68628578 24.0625 88.3125 C21.3097289 79.30021934 18.88641943 70.20614666 16.48077393 61.09625244 C13.7110638 50.60912421 10.80128543 40.17311225 7.79150391 29.75292969 C6.21739943 24.27803701 4.66964208 18.7957649 3.125 13.3125 C2.81425537 12.21768311 2.50351074 11.12286621 2.18334961 9.99487305 C1.89854736 8.98207275 1.61374512 7.96927246 1.3203125 6.92578125 C1.06523926 6.02255127 0.81016602 5.11932129 0.54736328 4.1887207 C0 2 0 2 0 0 Z " fill="#EFEEED" transform="translate(218,172)"/>
<path d="M0 0 C43.23 0 86.46 0 131 0 C131 5.28 131 10.56 131 16 C113.51 16 96.02 16 78 16 C78 66.16 78 116.32 78 168 C70.08 168 62.16 168 54 168 C54 117.84 54 67.68 54 16 C36.18 16 18.36 16 0 16 C0 10.72 0 5.44 0 0 Z " fill="#F1F0EF" transform="translate(70,173)"/>
</svg>
